# AST/ASF file generated using VICON BodyLanguage
# -----------------------------------------------
:version 1.10
:name VICON
:units
  mass 1.0
  length 0.45
  angle deg
:documentation
   .ast/.asf automatically generated from VICON data using
   VICON BodyBuilder and BodyLanguage model FoxedUp or BRILLIANT.MOD
:root
   order TX TY TZ RX RY RZ
   axis XYZ
   position 0 0 0  
   orientation 0 0 0 
:bonedata
  begin
     id 1 
     name lhipjoint
     direction 0.558404 -0.748506 0.357664 
     length 2.4234 
     axis 0 0 0  XYZ
  end
  begin
     id 2 
     name lfemur
     direction 0.34202 -0.939693 0  
     length 7.14567  
     axis 0 0 20  XYZ
    dof rx ry rz
    limits (-160.0 20.0)
           (-70.0 70.0)
           (-60.0 70.0)
  end
  begin
     id 3 
     name ltibia
     direction 0.34202 -0.939693 0   
     length 8.13956   
     axis 0 0 20   XYZ
    dof rx
    limits (-10.0 170.0)
  end
  begin
     id 4 
     name lfoot
     direction 0.0791314 -0.217412 0.972867   
     length 2.00134   
     axis -90 7.62852e-016 20   XYZ
    dof rx rz
    limits (-45.0 90.0)
           (-70.0 20.0)
  end
  begin
     id 5 
     name ltoes
     direction 1.53547e-011 -4.21922e-011 1   
     length 1.00735   
     axis -90 7.62852e-016 20   XYZ
    dof rx
    limits (-90.0 20.0)
  end
  begin
     id 6 
     name rhipjoint
     direction -0.496392 -0.78327 0.374276   
     length 2.31584  
     axis 0 0 0  XYZ 
  end
  begin
     id 7 
     name rfemur
     direction -0.34202 -0.939693 0   
     length 7.47417   
     axis 0 0 -20   XYZ
    dof rx ry rz
    limits (-160.0 20.0)
           (-70.0 70.0)
           (-70.0 60.0)
  end
  begin
     id 8 
     name rtibia
     direction -0.34202 -0.939693 0   
     length 7.69071   
     axis 0 0 -20   XYZ
    dof rx
    limits (-10.0 170.0)
 end
 begin
     id 9 
     name rfoot
     direction -0.103069 -0.28318 0.953512   
     length 2.16135  
     axis -90 -7.62852e-016 -20   XYZ
    dof rx rz
    limits (-45.0 90.0)
           (-20.0 70.0)
  end
  begin
     id 10 
     name rtoes
     direction -1.53581e-011 -4.21904e-011 1   
     length 1.07867   
     axis -90 -7.62852e-016 -20   XYZ
    dof rx
    limits (-90.0 20.0)
  end
  begin
     id 11 
     name lowerback
     direction -0.0258961 0.994776 -0.0987407   
     length 2.19412   
     axis 0 0 0   XYZ
    dof rx ry rz
    limits (-20.0 45.0)
           (-30.0 30.0)
           (-30.0 30.0)
  end
  begin
     id 12 
     name upperback
     direction 0.0402454 0.999185 0.00320666   
     length 2.18445   
     axis 0 0 0   XYZ
    dof rx ry rz
    limits (-20.0 45.0)
           (-30.0 30.0)
           (-30.0 30.0)
  end
  begin
     id 13 
     name thorax
     direction 0.0519376 0.997415 0.0496558   
     length 2.21487   
     axis 0 0 0   XYZ
    dof rx ry rz
    limits (-20.0 45.0)
           (-30.0 30.0)
           (-30.0 30.0)
  end
  begin
     id 14 
     name lowerneck
     direction -0.0921276 0.983211 0.157506   
     length 1.61201   
     axis 0 0 0   XYZ
    dof rx ry rz
    limits (-20.0 45.0)
           (-30.0 30.0)
           (-30.0 30.0)
  end
  begin
     id 15 
     name upperneck
     direction 0.0820814 0.98162 -0.172292   
     length 1.65275   
     axis 0 0 0   XYZ
    dof rx ry rz
    limits (-20.0 45.0)
           (-30.0 30.0)
           (-30.0 30.0)
  end
  begin
     id 16
     name head
     direction 0.0336554 0.996413 -0.0776455  
     length 1.66415  
     axis 0 0 0   XYZ
    dof rx ry rz
    limits (-20.0 45.0)
           (-30.0 30.0)
           (-30.0 30.0)
  end
  begin
     id 17 
     name lclavicle
     direction 0.94696 0.284418 -0.149576  
     length 3.41447  
     axis 0 0 0   XYZ
    dof ry rz
    limits (-20.0 10.0)
           (0.0 20.0)
  end
  begin
     id 18 
     name lhumerus
     direction 1 -0.000130264 -9.81312e-005   
     length 5.19964   
     axis 180 -30 -90   XYZ
    dof rx ry rz
    limits (-60.0 90.0)
           (-90.0 90.0)
           (-90.0 90.0)
  end
  begin
     id 19
     name lradius
     direction 1 -4.48961e-011 1.43854e-026   
     length 3.32189   
     axis 180 -30 -90   XYZ
    dof rx
    limits (-10.0 170.0)
  end
  begin
     id 20
     name lwrist
     direction 1 -4.48958e-011 3.1502e-026   
     length 1.66095   
     axis -1.97692e-014 90 90   XYZ
    dof ry
    limits (-180.0 0.0)
 end
  begin
     id 21 
     name lhand
     direction 1 -4.48927e-011 6.3004e-026   
     length 0.645616   
     axis -4.02019e-014 90 90   XYZ
    dof rx rz
    limits (-90.0 90.0)
           (-45.0 45.0)
  end
  begin
     id 22 
     name lfingers
     direction 1 -4.4904e-011 1.26008e-025   
     length 0.520512   
     axis -8.04039e-014 90 90   XYZ
    dof rx
    limits (0.0 90.0)
  end
  begin
     id 23
     name lthumb
     direction 0.707107 -6.34947e-011 0.707107   
     length 0.747354   
     axis -90 45 2.85299e-015   XYZ
    dof rx rz
    limits (-45.0 45.0)
           (-45.0 45.0)
  end
  begin
     id 24 
     name rclavicle
     direction -0.909391 0.383475 -0.161107   
     length 3.25176  
     axis 0 0 0   XYZ 
    dof ry rz
    limits (-10.0 20.0)
           (-20.0 0.0)
  end
  begin
     id 25 
     name rhumerus
     direction -1 -4.48965e-011 -1.81384e-027  
     length 5.6595   
     axis 180 30 90   XYZ
    dof rx ry rz
    limits (-90.0 60.0)
           (-90.0 90.0)
           (-90.0 90.0)
  end
  begin
     id 26 
     name rradius
     direction -1 -4.48996e-011 -8.09397e-027   
     length 3.37604   
     axis 180 30 90   XYZ
    dof rx
    limits (-10.0 170.0)
  end
  begin
     id 27 
     name rwrist
     direction -1 -4.48927e-011 -1.56669e-026   
     length 1.68802   
     axis 1.21142e-014 -90 -90   XYZ
    dof ry
    limits (-180.0 0.0)
  end
  begin
     id 28
     name rhand
     direction -1 -4.48912e-011 -3.13339e-026   
     length 0.824702   
     axis 1.99937e-014 -90 -90   XYZ
    dof rx rz
    limits (-90.0 90.0)
           (-45.0 45.0)
  end
  begin
     id 29
     name rfingers
     direction -1 -4.49011e-011 -6.26677e-026   
     length 0.664896   
     axis 3.99874e-014 -90 -90   XYZ
    dof rx
    limits (0.0 90.0)
  end
  begin
     id 30
     name rthumb
     direction -0.707107 -6.34931e-011 0.707107   
     length 0.954662   
     axis -90 -45 -2.85299e-015   XYZ
    dof rx rz
    limits (-45.0 45.0)
           (-45.0 45.0)
  end
:hierarchy
  begin
    root lhipjoint rhipjoint lowerback
    lhipjoint lfemur
    lfemur ltibia
    ltibia lfoot
    lfoot ltoes
    rhipjoint rfemur
    rfemur rtibia
    rtibia rfoot
    rfoot rtoes
    lowerback upperback
    upperback thorax
    thorax lowerneck lclavicle rclavicle
    lowerneck upperneck
    upperneck head
    lclavicle lhumerus
    lhumerus lradius
    lradius lwrist
    lwrist lhand lthumb
    lhand lfingers
    rclavicle rhumerus
    rhumerus rradius
    rradius rwrist
    rwrist rhand rthumb
    rhand rfingers
  end

#!OML:ASF F:\VICON\USERDATA\INSTALL\rory3\rory3.ASF
:FULLY-SPECIFIED
:DEGREES
234
root 7.99585 16.306 -21.2695 24.0052 -32.0752 -2.60171
lowerback 12.3646 -3.47441 -7.58397
upperback -0.387747 -5.37198 5.58759
thorax -6.10758 -2.33156 11.2981
lowerneck -14.75 -1.17005 -10.2554
upperneck 20.8515 -1.90728 11.5999
head 9.15747 -0.516368 5.53251
rclavicle -1.20911e-013 1.88845e-014
rhumerus -38.0915 -4.15467 -71.6737
rradius 56.1417
rwrist -18.5746
rhand -16.0552 17.3024
rfingers 7.12502
rthumb 10.1469 -12.4329
lclavicle -1.20911e-013 1.88845e-014
lhumerus -11.112 19.3374 73.4573
lradius 27.1783
lwrist -6.02068
lhand -8.98248 30.7561
lfingers 7.12502
lthumb 16.9633 60.0354
rfemur -62.7579 -5.96565 24.4487
rtibia 74.7814
rfoot -20.6451 -4.06809
rtoes 5.1545
lfemur -1.79088 -6.73464 -28.5716
ltibia 36.8205
lfoot 1.01089 -6.56712
ltoes -9.85035
235
root 7.89655 16.2495 -21.0044 23.9679 -31.6876 -2.77842
lowerback 12.6884 -3.59894 -7.26455
upperback -0.528692 -5.49617 5.81468
thorax -6.41893 -2.37373 11.433
lowerneck -14.9258 -1.16035 -10.1544
upperneck 21.2821 -1.83948 11.1848
head 9.32743 -0.518127 5.39214
rclavicle -1.4238e-014 -2.33075e-014
rhumerus -38.1233 -3.72281 -71.3731
rradius 56.3932
rwrist -18.6153
rhand -15.6203 17.5274
rfingers 7.12502
rthumb 10.5664 -12.187
lclavicle -1.4238e-014 -2.33075e-014
lhumerus -11.8774 20.2402 72.6502
lradius 27.1776
lwrist -6.33966
lhand -8.0467 31.0192
lfingers 7.12502
lthumb 17.8639 60.2187
rfemur -61.6857 -6.16877 24.3258
rtibia 75.4468
rfoot -22.1088 -4.75722
rtoes 3.07617
lfemur -2.29855 -7.20096 -28.4857
ltibia 38.7236
lfoot 4.68076 -6.40655
ltoes -3.21074
236
root 7.80596 16.179 -20.7449 23.9672 -31.5527 -3.11862
lowerback 12.4434 -3.59943 -6.76664
upperback -0.171286 -5.40671 5.9001
thorax -5.95189 -2.39205 11.1664
lowerneck -15.3057 -1.30917 -10.2114
upperneck 21.0984 -1.98158 11.1986
head 9.35499 -0.574221 5.38799
rclavicle -4.4975e-015 -4.68138e-014
rhumerus -37.4722 -3.76345 -71.2026
rradius 56.5244
rwrist -18.2977
rhand -14.8792 18.0924
rfingers 7.12502
rthumb 11.2813 -11.5842
lclavicle -4.4975e-015 -4.68138e-014
lhumerus -11.7564 20.9246 71.9509
lradius 27.1267
lwrist -6.77479
lhand -7.88501 31.2018
lfingers 7.12502
lthumb 18.0195 60.3871
rfemur -60.5628 -5.99497 24.1291
rtibia 76.079
rfoot -23.4951 -4.96044
rtoes 2.27392
lfemur -3.00257 -7.41446 -28.3602
ltibia 41.0258
lfoot 8.18118 -5.79099
ltoes 4.78721
237
root 7.71714 16.1182 -20.4969 24.4304 -31.3118 -3.40843
lowerback 12.0728 -3.65882 -6.32999
upperback -0.132811 -5.40124 6.04038
thorax -5.72953 -2.41845 11.0219
lowerneck -15.2422 -1.27076 -10.2441
upperneck 20.6324 -1.88752 11.2094
head 9.1711 -0.528616 5.39018
rclavicle 5.19325e-015 4.95968e-014
rhumerus -36.8198 -4.24838 -70.5228
rradius 55.9113
rwrist -15.648
rhand -12.9942 19.9219
rfingers 7.12502
rthumb 13.0988 -9.64673
lclavicle 5.19325e-015 4.95968e-014
lhumerus -11.9811 21.4228 71.0285
lradius 27.1463
lwrist -7.01883
lhand -7.91307 31.3355
lfingers 7.12502
lthumb 17.9925 60.5232
rfemur -59.9367 -5.7456 23.9667
rtibia 76.5904
rfoot -24.701 -5.43278
rtoes 0.633973
lfemur -4.72591 -7.40032 -27.9902
ltibia 43.825
lfoot 11.6439 -5.44764
ltoes 12.5104
238
root 7.62212 16.0696 -20.2362 24.4072 -31.183 -3.81778
lowerback 12.353 -3.56192 -5.9518
upperback -0.0361848 -5.22067 6.19919
thorax -5.84243 -2.33508 10.979
lowerneck -15.0442 -1.30039 -10.4354
upperneck 20.2194 -1.87678 11.2639
head 8.9934 -0.533839 5.42636
rclavicle -1.00225e-013 2.38386e-014
rhumerus -36.292 -4.14718 -70.0886
rradius 55.811
rwrist -14.9729
rhand -12.5576 20.4648
rfingers 7.12502
rthumb 13.5196 -9.07629
lclavicle -1.00225e-013 2.38386e-014
lhumerus -12.3425 21.7825 70.0959
lradius 27.0593
lwrist -7.17229
lhand -7.12503 31.6486
lfingers 7.12502
lthumb 18.7506 60.7649
rfemur -58.4546 -5.45594 23.8305
rtibia 76.8711
rfoot -25.8988 -6.05518
rtoes -2.5438
lfemur -6.02329 -6.942 -27.6245
ltibia 46.8833
lfoot 14.8299 -5.37295
ltoes 10.1972
239
root 7.52963 16.0169 -19.9845 24.6659 -30.7936 -4.13219
lowerback 12.4027 -3.52976 -5.59385
upperback -0.101486 -5.11351 6.4614
thorax -5.97187 -2.2806 11.0616
lowerneck -15.1782 -1.52158 -10.7466
upperneck 20.1712 -2.099 11.3141
head 9.03412 -0.651423 5.47239
rclavicle 7.83709e-014 1.96797e-014
rhumerus -35.8137 -3.58876 -69.7201
rradius 56.0889
rwrist -15.1959
rhand -12.627 20.471
rfingers 7.12502
rthumb 13.4527 -9.07454
lclavicle 7.83709e-014 1.96797e-014
lhumerus -12.7906 22.3295 69.2957
lradius 26.8639
lwrist -7.31279
lhand -6.62277 31.5984
lfingers 7.12502
lthumb 19.2336 60.6673
rfemur -57.4008 -5.45076 23.8414
rtibia 77.0638
rfoot -26.9546 -6.75932
rtoes -5.44315
lfemur -7.96467 -6.38338 -27.0969
ltibia 50.3765
lfoot 17.8687 -5.68761
ltoes 9.45473
240
root 7.44377 15.9674 -19.7048 24.4351 -30.6924 -4.6465
lowerback 12.8467 -3.41123 -5.02084
upperback 0.02664 -4.87442 6.63539
thorax -6.16873 -2.17052 10.9256
lowerneck -15.6641 -1.70455 -10.7781
upperneck 20.4307 -2.27364 11.1366
head 9.23617 -0.741759 5.40814
rclavicle -5.97845e-014 1.05356e-014
rhumerus -35.1818 -3.11793 -69.3154
rradius 56.2079
rwrist -15.2291
rhand -12.6826 20.57
rfingers 7.12502
rthumb 13.3992 -8.97913
lclavicle -5.97845e-014 1.05356e-014
lhumerus -13.4051 22.7706 68.3489
lradius 26.7362
lwrist -7.05969
lhand -7.23468 31.1713
lfingers 7.12502
lthumb 18.6451 60.2978
rfemur -55.509 -5.39697 23.8145
rtibia 77.0947
rfoot -28.1626 -7.1529
rtoes -6.7318
lfemur -9.28705 -5.67294 -26.7854
ltibia 54.0044
lfoot 20.5213 -5.38692
ltoes 11.9635
241
root 7.35624 15.9304 -19.4506 24.7648 -30.3127 -5.08893
lowerback 12.9048 -3.39816 -4.50758
upperback -0.0389852 -4.76931 6.82259
thorax -6.32087 -2.12204 10.8313
lowerneck -15.5306 -1.76929 -10.8489
upperneck 20.1575 -2.33634 11.1359
head 9.12635 -0.776951 5.40121
rclavicle -6.05299e-014 1.97791e-014
rhumerus -34.3209 -2.70029 -69.1411
rradius 56.3477
rwrist -15.5412
rhand -12.6317 20.6145
rfingers 7.12502
rthumb 13.4482 -8.93135
lclavicle -6.05299e-014 1.97791e-014
lhumerus -14.0237 23.0554 67.1558
lradius 26.6968
lwrist -6.57749
lhand -7.87008 30.9423
lfingers 7.12502
lthumb 18.0338 60.1262
rfemur -54.3262 -5.43267 24.043
rtibia 77.0109
rfoot -29.1924 -7.73212
rtoes -7.78349
lfemur -11.6789 -5.18668 -26.1921
ltibia 57.9995
lfoot 21.5063 -4.4042
ltoes 12.8042
242
root 7.26891 15.896 -19.1903 24.8909 -30.444 -5.85795
lowerback 13.0892 -3.12975 -4.00237
upperback 0.171833 -4.337 6.92529
thorax -6.3186 -1.93021 10.586
lowerneck -15.2501 -1.90156 -10.9146
upperneck 19.6609 -2.53691 11.3284
head 8.93294 -0.859074 5.43719
rclavicle 1.82882e-014 -3.26007e-014
rhumerus -33.29 -2.29223 -69.1557
rradius 56.7911
rwrist -15.9831
rhand -12.8363 20.2454
rfingers 7.12502
rthumb 13.251 -9.3134
lclavicle 1.82882e-014 -3.26007e-014
lhumerus -14.3973 23.3616 65.9462
lradius 26.5815
lwrist -6.68431
lhand -8.63602 30.4622
lfingers 7.12502
lthumb 17.2968 59.7125
rfemur -52.648 -5.11191 24.3492
rtibia 76.7196
rfoot -30.0512 -8.2237
rtoes -8.54535
lfemur -13.7786 -4.0662 -25.6033
ltibia 62.1167
lfoot 21.3675 -3.42835
ltoes 15.1948
243
root 7.17991 15.8661 -18.9291 24.6964 -30.0625 -6.62785
lowerback 13.6464 -3.00662 -3.29716
upperback 0.40219 -4.06258 7.11954
thorax -6.47372 -1.81386 10.3842
lowerneck -15.4136 -2.09103 -10.9304
upperneck 19.5998 -2.79158 11.405
head 8.97686 -0.966038 5.43619
rclavicle -2.85256e-014 -2.5842e-014
rhumerus -32.2666 -1.65372 -69.0713
rradius 57.4084
rwrist -16.3213
rhand -13.5053 19.6333
rfingers 7.12502
rthumb 12.6061 -9.96637
lclavicle -2.85256e-014 -2.5842e-014
lhumerus -14.9447 23.9086 64.6995
lradius 26.5366
lwrist -7.1058
lhand -9.34124 29.8973
lfingers 7.12502
lthumb 16.6179 59.2058
rfemur -50.473 -5.25999 24.8516
rtibia 76.2902
rfoot -31.0092 -8.58599
rtoes -8.64016
lfemur -15.6657 -3.09522 -24.6827
ltibia 66.4748
lfoot 19.9995 -2.80655
ltoes 11.3688
244
root 7.0878 15.8557 -18.6542 24.6762 -29.9106 -7.52751
lowerback 14.122 -2.82309 -2.59793
upperback 0.520351 -3.69676 7.33463
thorax -6.71509 -1.64525 10.1906
lowerneck -15.4012 -2.26422 -11.081
upperneck 19.5241 -2.99825 11.4465
head 8.97866 -1.06897 5.44947
rclavicle 4.28381e-014 -9.83984e-014
rhumerus -31.1942 -0.938443 -68.9829
rradius 57.9369
rwrist -17.2097
rhand -14.4662 19.5081
rfingers 7.12502
rthumb 11.6796 -10.1463
lclavicle 4.28381e-014 -9.83984e-014
lhumerus -15.6095 24.5575 63.2673
lradius 26.4573
lwrist -7.09968
lhand -8.67752 30.2484
lfingers 7.12502
lthumb 17.2568 59.5022
rfemur -48.2768 -5.1881 25.3952
rtibia 75.6214
rfoot -31.8044 -9.32384
rtoes -10.4987
lfemur -17.7663 -1.7175 -23.6754
ltibia 70.8337
lfoot 17.6912 -2.32215
ltoes 14.6427
